<?xml version="1.0" standalone="no"?>
<!DOCTYPE svg PUBLIC "-//W3C//DTD SVG 20010904//EN"
 "http://www.w3.org/TR/2001/REC-SVG-20010904/DTD/svg10.dtd">
<svg version="1.0" xmlns="http://www.w3.org/2000/svg"
 width="2000.000000pt" height="220.000000pt" viewBox="0 0 2000.000000 220.000000"
 preserveAspectRatio="xMidYMid meet">

<g transform="translate(0.000000,220.000000) scale(0.100000,-0.100000)"
fill="#000000" stroke="none">
<path d="M12340 2183 c-455 -31 -735 -183 -879 -476 -83 -168 -113 -320 -113
-573 0 -248 31 -401 117 -580 137 -284 407 -452 794 -494 127 -14 468 -9 631
10 107 13 259 42 338 65 l52 16 0 450 c0 402 -2 450 -15 445 -29 -11 -619 -29
-697 -22 l-78 8 0 85 0 86 243 -7 c220 -6 347 -14 495 -32 l52 -6 0 460 0 461
-52 15 c-104 29 -135 35 -273 55 -220 32 -459 45 -615 34z"/>
<path d="M200 1120 l0 -1040 855 0 855 0 0 385 0 385 -335 0 -335 0 0 60 0 60
323 2 322 3 3 93 3 92 -326 0 -325 0 0 60 0 60 323 2 322 3 3 438 2 437 -845
0 -845 0 0 -1040z"/>
<path d="M2050 2148 c0 -9 360 -1963 376 -2041 l6 -27 703 0 704 0 10 53 c17
84 361 2008 361 2018 0 5 -193 9 -464 9 l-464 0 -6 -72 c-6 -63 -66 -1109 -66
-1138 0 -5 -15 -10 -34 -10 l-34 0 -6 73 c-3 39 -20 290 -36 557 -17 267 -33
509 -36 538 l-5 52 -505 0 c-375 0 -504 -3 -504 -12z"/>
<path d="M4350 1120 l0 -1040 855 0 855 0 0 385 0 385 -340 0 -340 0 0 60 0
60 325 0 325 0 0 95 0 95 -325 0 -325 0 0 60 0 60 325 0 325 0 0 440 0 440
-840 0 -840 0 0 -1040z"/>
<path d="M6240 1120 l0 -1040 470 0 470 0 0 302 c0 166 3 299 6 296 3 -4 40
-138 82 -300 l77 -293 463 -3 462 -2 0 1040 0 1040 -460 0 -460 0 0 -312 c0
-171 -3 -309 -6 -306 -3 3 -47 143 -98 309 l-93 304 -456 3 -457 2 0 -1040z"/>
<path d="M8450 1720 l0 -440 180 0 180 0 0 -600 0 -600 560 0 560 0 0 600 0
600 185 0 185 0 0 440 0 440 -925 0 -925 0 0 -440z"/>
<path d="M13460 1120 l0 -1040 490 0 490 0 0 350 0 350 90 0 90 0 0 -350 0
-350 495 0 495 0 0 1040 0 1040 -495 0 -495 0 0 -470 0 -470 -90 0 -90 0 0
470 0 470 -490 0 -490 0 0 -1040z"/>
<path d="M16096 2106 c-173 -595 -299 -1291 -351 -1944 l-7 -82 470 0 470 0 6
31 c3 17 6 55 6 84 0 28 3 86 6 128 l7 77 92 0 92 0 7 -61 c3 -34 6 -85 6
-114 0 -29 3 -73 6 -99 l7 -46 495 0 495 0 -7 87 c-41 533 -202 1438 -339
1908 l-23 80 -711 3 -712 2 -15 -54z m758 -1098 c4 -79 9 -187 13 -240 l6 -98
-71 0 c-39 0 -73 3 -75 8 -4 5 18 459 22 470 1 1 23 2 50 2 l48 0 7 -142z"/>
<path d="M17910 1720 l0 -440 180 0 180 0 0 -600 0 -600 560 0 560 0 0 600 0
600 185 0 185 0 0 440 0 440 -925 0 -925 0 0 -440z"/>
</g>
</svg>
