<svg version="1.1" id="Layer_1" xmlns="http://www.w3.org/2000/svg" xmlns:xlink="http://www.w3.org/1999/xlink" x="0px" y="0px"
	 width="100%" viewBox="0 0 2000 1117" enable-background="new 0 0 2000 1117" xml:space="preserve">
<path fill="#4C6971" opacity="1.000000" stroke="none" 
	d="
M1354.000000,1118.000000 
	C902.666809,1118.000000 451.833588,1118.000000 1.000302,1118.000000 
	C1.000202,745.666931 1.000202,373.333832 1.000101,1.000552 
	C667.666199,1.000368 1334.332397,1.000368 2000.999023,1.000184 
	C2000.999268,373.332764 2000.999268,745.665527 2000.999634,1117.999146 
	C1785.500000,1118.000000 1570.000000,1118.000000 1354.000000,1118.000000 
M1533.500000,5.999825 
	C1520.877930,6.329581 1508.239136,6.359014 1495.637695,7.059351 
	C1476.637939,8.115268 1457.623413,9.223988 1438.690918,11.082258 
	C1419.808838,12.935597 1400.807861,14.675550 1382.240234,18.377459 
	C1354.605835,23.887033 1327.016846,30.062508 1299.934204,37.795609 
	C1261.648560,48.727528 1225.196533,64.440697 1190.739990,84.615074 
	C1165.535034,99.372620 1141.833984,116.262146 1120.602417,136.236633 
	C1107.219849,148.826813 1094.991211,162.726578 1082.981323,176.673080 
	C1065.757812,196.674088 1052.058960,219.125076 1039.834106,242.465881 
	C1025.124512,270.550934 1013.409729,299.912933 1005.220032,330.478607 
	C998.867798,354.186249 993.765808,378.273163 989.188293,402.396454 
	C986.117371,418.579926 984.673767,435.094849 982.981628,451.510864 
	C981.337280,467.462921 979.731750,483.457306 979.154358,499.470825 
	C978.497375,517.692017 978.877258,535.956055 979.038513,554.199341 
	C979.145752,566.323181 979.424377,578.455688 980.053894,590.562073 
	C980.775574,604.439331 981.506409,618.344543 983.069824,632.142761 
	C985.316895,651.975037 987.381165,671.906738 991.238342,691.457642 
	C996.021606,715.703125 1001.677734,739.857056 1008.540039,763.592834 
	C1018.999512,799.770813 1034.217041,834.058960 1053.233765,866.636353 
	C1068.383545,892.589172 1085.757446,916.971863 1106.484497,938.663635 
	C1120.681885,953.521729 1135.860596,967.574219 1151.604126,980.791504 
	C1174.831299,1000.291748 1200.561401,1016.267822 1227.518066,1030.159058 
	C1259.077759,1046.422241 1292.027588,1059.342529 1326.310059,1068.446045 
	C1348.925415,1074.451416 1371.841675,1079.545776 1394.862549,1083.731812 
	C1413.833740,1087.181152 1433.125488,1089.000366 1452.333130,1090.978149 
	C1469.274780,1092.722412 1486.288330,1094.655029 1503.284668,1094.797974 
	C1540.400146,1095.109741 1577.527100,1094.493896 1614.644653,1093.937744 
	C1631.894287,1093.679443 1649.136475,1092.756348 1666.375244,1091.982422 
	C1677.791748,1091.469727 1689.207520,1090.836670 1700.603638,1089.988647 
	C1716.597534,1088.798462 1732.585449,1087.491089 1748.552856,1085.988403 
	C1764.833618,1084.456177 1781.156128,1083.114990 1797.334839,1080.809692 
	C1819.864990,1077.599487 1842.397827,1074.171997 1864.713379,1069.747559 
	C1896.448975,1063.455322 1927.884766,1055.810791 1958.586670,1045.375000 
	C1962.785156,1043.947998 1964.105103,1042.235229 1964.101440,1037.826660 
	C1963.978394,888.663574 1963.999512,739.500427 1963.999634,590.337219 
	C1963.999634,588.407959 1963.999512,586.478699 1963.999512,584.341309 
	C1949.890991,585.601257 1936.576782,586.934448 1923.238281,587.947083 
	C1903.928833,589.412903 1884.608276,590.753906 1865.279907,591.943298 
	C1851.380615,592.798645 1837.464844,593.424622 1823.549194,593.965027 
	C1803.809937,594.731628 1784.068604,595.564148 1764.319946,595.936951 
	C1735.036499,596.489746 1705.745972,596.892090 1676.458008,596.927368 
	C1653.337402,596.955139 1630.214966,596.390625 1607.095337,595.973511 
	C1596.971313,595.790833 1586.847046,595.427002 1576.733521,594.929626 
	C1572.325928,594.712891 1567.944946,593.953430 1563.573608,593.442932 
	C1563.373169,592.770081 1563.114014,592.305176 1563.113159,591.839905 
	C1563.070557,565.674866 1563.079224,539.509644 1562.987427,513.344849 
	C1562.976196,510.133728 1564.822876,509.919678 1567.189697,510.005737 
	C1576.477905,510.343628 1585.764160,510.825684 1595.055542,510.967773 
	C1622.342041,511.385071 1649.631104,511.630371 1676.918335,512.010864 
	C1696.707153,512.286743 1716.498779,512.517273 1736.280640,513.070923 
	C1746.201172,513.348572 1756.098022,514.386047 1766.013794,514.932739 
	C1785.542725,516.009460 1805.079956,516.936768 1824.608643,518.018555 
	C1835.189575,518.604614 1845.781738,519.147278 1856.330078,520.127747 
	C1871.621704,521.549011 1886.894043,523.214355 1902.145020,525.025635 
	C1917.049316,526.795776 1931.917725,528.869141 1946.799072,530.831055 
	C1952.289062,531.554810 1957.770874,532.340271 1963.671143,533.154846 
	C1963.671143,375.113708 1963.671143,217.868790 1963.671143,60.648003 
	C1947.494385,55.742191 1931.622559,50.640034 1915.584229,46.129482 
	C1888.233276,38.437450 1860.407349,32.906971 1832.282959,28.896856 
	C1806.478638,25.217518 1780.699097,21.337967 1754.847046,18.028620 
	C1733.720093,15.324148 1712.521851,13.126040 1691.317993,11.092579 
	C1676.988892,9.718415 1662.607544,8.754776 1648.227295,8.083467 
	C1628.328735,7.154547 1608.413696,6.436919 1588.497437,6.070025 
	C1570.503906,5.738550 1552.499634,5.999907 1533.500000,5.999825 
M878.000000,148.500000 
	C877.999939,108.337837 878.001526,68.175674 877.998291,28.013506 
	C877.997742,21.011709 877.988403,21.001791 870.980591,21.001751 
	C589.669312,21.000071 308.358002,21.000072 27.046715,21.001699 
	C20.012085,21.001740 20.001816,21.011379 20.001781,27.986172 
	C20.000093,376.292206 20.000109,724.598267 20.001587,1072.904297 
	C20.001617,1079.987061 20.010784,1079.998047 26.937389,1079.998047 
	C312.914978,1080.000000 598.892578,1080.000000 884.870178,1079.998413 
	C891.986877,1079.998413 891.997925,1079.989380 891.998047,1073.096436 
	C892.000366,946.106384 892.000305,819.116333 891.998474,692.126282 
	C891.998352,684.998413 891.989380,684.992310 884.591553,684.992126 
	C817.596802,684.990479 750.602051,684.991272 683.607300,684.991028 
	C640.277344,684.990845 596.947266,684.936890 553.617737,685.073547 
	C549.389282,685.086853 547.817261,684.153137 547.892517,679.578735 
	C548.166809,662.917908 548.074524,646.249268 547.944153,629.584961 
	C547.917603,626.191284 548.884644,624.587952 552.451538,624.975769 
	C554.098328,625.154785 555.781250,625.000305 557.447754,625.000305 
	C662.272888,624.999756 767.098022,624.968811 871.922974,625.098633 
	C876.661804,625.104492 878.154724,623.956726 878.112305,619.042786 
	C877.876587,591.713623 878.049255,564.381226 877.974731,537.050232 
	C877.946289,526.606384 879.381531,528.028198 869.017456,528.024292 
	C764.025696,527.984375 659.033813,527.967957 554.042236,528.100830 
	C549.256104,528.106873 547.790710,526.882568 547.885742,522.007629 
	C548.190857,506.348114 547.995422,490.678986 548.000122,475.013550 
	C548.002197,468.012756 548.009888,468.002960 555.019104,468.002808 
	C660.344177,468.000488 765.669312,468.001556 870.994385,467.999268 
	C877.988647,467.999115 877.998230,467.989410 877.998413,460.975616 
	C878.000549,357.150421 877.999939,253.325211 878.000000,148.500000 
z"/>
<path fill="#634FFF" opacity="1.000000" stroke="none" 
	d="
M1534.000000,5.999831 
	C1552.499634,5.999907 1570.503906,5.738550 1588.497437,6.070025 
	C1608.413696,6.436919 1628.328735,7.154547 1648.227295,8.083467 
	C1662.607544,8.754776 1676.988892,9.718415 1691.317993,11.092579 
	C1712.521851,13.126040 1733.720093,15.324148 1754.847046,18.028620 
	C1780.699097,21.337967 1806.478638,25.217518 1832.282959,28.896856 
	C1860.407349,32.906971 1888.233276,38.437450 1915.584229,46.129482 
	C1931.622559,50.640034 1947.494385,55.742191 1963.671143,60.648003 
	C1963.671143,217.868790 1963.671143,375.113708 1963.671143,533.154846 
	C1957.770874,532.340271 1952.289062,531.554810 1946.799072,530.831055 
	C1931.917725,528.869141 1917.049316,526.795776 1902.145020,525.025635 
	C1886.894043,523.214355 1871.621704,521.549011 1856.330078,520.127747 
	C1845.781738,519.147278 1835.189575,518.604614 1824.608643,518.018555 
	C1805.079956,516.936768 1785.542725,516.009460 1766.013794,514.932739 
	C1756.098022,514.386047 1746.201172,513.348572 1736.280640,513.070923 
	C1716.498779,512.517273 1696.707153,512.286743 1676.918335,512.010864 
	C1649.631104,511.630371 1622.342041,511.385071 1595.055542,510.967773 
	C1585.764160,510.825684 1576.477905,510.343628 1567.189697,510.005737 
	C1564.822876,509.919678 1562.976196,510.133728 1562.987427,513.344849 
	C1563.079224,539.509644 1563.070557,565.674866 1563.113159,591.839905 
	C1563.114014,592.305176 1563.373169,592.770081 1563.573608,593.442932 
	C1567.944946,593.953430 1572.325928,594.712891 1576.733521,594.929626 
	C1586.847046,595.427002 1596.971313,595.790833 1607.095337,595.973511 
	C1630.214966,596.390625 1653.337402,596.955139 1676.458008,596.927368 
	C1705.745972,596.892090 1735.036499,596.489746 1764.319946,595.936951 
	C1784.068604,595.564148 1803.809937,594.731628 1823.549194,593.965027 
	C1837.464844,593.424622 1851.380615,592.798645 1865.279907,591.943298 
	C1884.608276,590.753906 1903.928833,589.412903 1923.238281,587.947083 
	C1936.576782,586.934448 1949.890991,585.601257 1963.999512,584.341309 
	C1963.999512,586.478699 1963.999634,588.407959 1963.999634,590.337219 
	C1963.999512,739.500427 1963.978394,888.663574 1964.101440,1037.826660 
	C1964.105103,1042.235229 1962.785156,1043.947998 1958.586670,1045.375000 
	C1927.884766,1055.810791 1896.448975,1063.455322 1864.713379,1069.747559 
	C1842.397827,1074.171997 1819.864990,1077.599487 1797.334839,1080.809692 
	C1781.156128,1083.114990 1764.833618,1084.456177 1748.552856,1085.988403 
	C1732.585449,1087.491089 1716.597534,1088.798462 1700.603638,1089.988647 
	C1689.207520,1090.836670 1677.791748,1091.469727 1666.375244,1091.982422 
	C1649.136475,1092.756348 1631.894287,1093.679443 1614.644653,1093.937744 
	C1577.527100,1094.493896 1540.400146,1095.109741 1503.284668,1094.797974 
	C1486.288330,1094.655029 1469.274780,1092.722412 1452.333130,1090.978149 
	C1433.125488,1089.000366 1413.833740,1087.181152 1394.862549,1083.731812 
	C1371.841675,1079.545776 1348.925415,1074.451416 1326.310059,1068.446045 
	C1292.027588,1059.342529 1259.077759,1046.422241 1227.518066,1030.159058 
	C1200.561401,1016.267822 1174.831299,1000.291748 1151.604126,980.791504 
	C1135.860596,967.574219 1120.681885,953.521729 1106.484497,938.663635 
	C1085.757446,916.971863 1068.383545,892.589172 1053.233765,866.636353 
	C1034.217041,834.058960 1018.999512,799.770813 1008.540039,763.592834 
	C1001.677734,739.857056 996.021606,715.703125 991.238342,691.457642 
	C987.381165,671.906738 985.316895,651.975037 983.069824,632.142761 
	C981.506409,618.344543 980.775574,604.439331 980.053894,590.562073 
	C979.424377,578.455688 979.145752,566.323181 979.038513,554.199341 
	C978.877258,535.956055 978.497375,517.692017 979.154358,499.470825 
	C979.731750,483.457306 981.337280,467.462921 982.981628,451.510864 
	C984.673767,435.094849 986.117371,418.579926 989.188293,402.396454 
	C993.765808,378.273163 998.867798,354.186249 1005.220032,330.478607 
	C1013.409729,299.912933 1025.124512,270.550934 1039.834106,242.465881 
	C1052.058960,219.125076 1065.757812,196.674088 1082.981323,176.673080 
	C1094.991211,162.726578 1107.219849,148.826813 1120.602417,136.236633 
	C1141.833984,116.262146 1165.535034,99.372620 1190.739990,84.615074 
	C1225.196533,64.440697 1261.648560,48.727528 1299.934204,37.795609 
	C1327.016846,30.062508 1354.605835,23.887033 1382.240234,18.377459 
	C1400.807861,14.675550 1419.808838,12.935597 1438.690918,11.082258 
	C1457.623413,9.223988 1476.637939,8.115268 1495.637695,7.059351 
	C1508.239136,6.359014 1520.877930,6.329581 1534.000000,5.999831 
z"/>
<path fill="#634FFF" opacity="1.000000" stroke="none" 
	d="
M878.000000,149.000000 
	C877.999939,253.325211 878.000549,357.150421 877.998413,460.975616 
	C877.998230,467.989410 877.988647,467.999115 870.994385,467.999268 
	C765.669312,468.001556 660.344177,468.000488 555.019104,468.002808 
	C548.009888,468.002960 548.002197,468.012756 548.000122,475.013550 
	C547.995422,490.678986 548.190857,506.348114 547.885742,522.007629 
	C547.790710,526.882568 549.256104,528.106873 554.042236,528.100830 
	C659.033813,527.967957 764.025696,527.984375 869.017456,528.024292 
	C879.381531,528.028198 877.946289,526.606384 877.974731,537.050232 
	C878.049255,564.381226 877.876587,591.713623 878.112305,619.042786 
	C878.154724,623.956726 876.661804,625.104492 871.922974,625.098633 
	C767.098022,624.968811 662.272888,624.999756 557.447754,625.000305 
	C555.781250,625.000305 554.098328,625.154785 552.451538,624.975769 
	C548.884644,624.587952 547.917603,626.191284 547.944153,629.584961 
	C548.074524,646.249268 548.166809,662.917908 547.892517,679.578735 
	C547.817261,684.153137 549.389282,685.086853 553.617737,685.073547 
	C596.947266,684.936890 640.277344,684.990845 683.607300,684.991028 
	C750.602051,684.991272 817.596802,684.990479 884.591553,684.992126 
	C891.989380,684.992310 891.998352,684.998413 891.998474,692.126282 
	C892.000305,819.116333 892.000366,946.106384 891.998047,1073.096436 
	C891.997925,1079.989380 891.986877,1079.998413 884.870178,1079.998413 
	C598.892578,1080.000000 312.914978,1080.000000 26.937389,1079.998047 
	C20.010784,1079.998047 20.001617,1079.987061 20.001587,1072.904297 
	C20.000109,724.598267 20.000093,376.292206 20.001781,27.986172 
	C20.001816,21.011379 20.012085,21.001740 27.046715,21.001699 
	C308.358002,21.000072 589.669312,21.000071 870.980591,21.001751 
	C877.988403,21.001791 877.997742,21.011709 877.998291,28.013506 
	C878.001526,68.175674 877.999939,108.337837 878.000000,149.000000 
z"/>
</svg>