<svg xmlns="http://www.w3.org/2000/svg" xmlns:xlink="http://www.w3.org/1999/xlink" version="1.1" id="Layer_1" x="0px" y="0px" enable-background="new 0 0 500 500" xml:space="preserve" viewBox="21.82 143.38 166.44 214.42">

<path fill="#010101" opacity="1.000000" stroke="none" d=" M72.000206,143.381119   C103.822861,143.381134 135.145523,143.368729 166.468140,143.402328   C169.292099,143.405350 172.142578,143.513382 174.934418,143.903915   C182.859543,145.012512 188.202805,150.870941 188.212219,158.784012   C188.272079,209.100113 188.282639,259.416351 188.208603,309.732391   C188.193359,320.086975 179.826797,327.975800 169.174927,327.990509   C142.850616,328.026917 116.525780,328.078217 90.202385,327.919983   C86.299011,327.896545 83.397667,328.801636 80.495399,331.557098   C71.334595,340.254425 61.861820,348.623199 51.759876,357.800323   C51.759876,347.438293 51.759876,337.943481 51.759876,328.002472   C47.745354,328.002472 44.280064,328.019623 40.814991,327.999298   C29.851669,327.934937 21.854771,320.116486 21.847139,309.247223   C21.812046,259.264282 21.816610,209.281311 21.843767,159.298386   C21.848536,150.520462 27.064035,144.355484 36.036491,143.871429   C47.832211,143.235046 59.676689,143.502396 72.000206,143.381119  M106.760544,197.934814   C117.825592,195.011230 124.093918,203.018631 131.314743,209.323288   C131.863480,208.297699 132.383896,207.764618 132.411987,207.206726   C132.847107,198.567780 133.366104,189.926575 133.423248,181.282990   C133.430649,180.163773 131.097168,178.273865 129.638260,178.037933   C124.726395,177.243515 119.703865,177.168488 114.752197,176.578735   C94.590408,174.177429 80.874573,182.314896 73.914505,201.368027   C67.552567,218.783813 67.638657,236.703201 71.651924,254.498581   C77.170723,278.969696 91.260246,287.950439 116.193939,284.223755   C122.231079,283.321411 128.434296,283.128632 134.548050,283.252838   C140.739365,283.378571 141.300461,283.028503 140.024460,277.052856   C136.802872,261.965424 134.805466,246.865814 139.959015,231.751511   C140.203003,231.035965 139.990341,230.164734 139.990341,229.109726   C130.652130,229.109726 121.478165,229.109726 111.733704,229.109726   C112.780136,231.791748 113.686142,233.892868 114.426155,236.050888   C116.893784,243.247040 118.566978,250.494354 115.025856,257.850769   C113.151123,261.745392 110.211121,264.140228 105.684380,264.154663   C101.458672,264.168152 99.651314,261.156158 98.042297,257.977264   C97.295013,256.500885 96.613838,254.952850 96.180992,253.361588   C92.758659,240.780151 92.170204,228.061234 95.166779,215.350357   C96.784767,208.487213 99.370728,201.974136 106.760544,197.934814  z" data-index="1"/>
<path fill="#F4F5EC" opacity="1.000000" stroke="none" d=" M106.393661,198.053314   C99.370728,201.974136 96.784767,208.487213 95.166779,215.350357   C92.170204,228.061234 92.758659,240.780151 96.180992,253.361588   C96.613838,254.952850 97.295013,256.500885 98.042297,257.977264   C99.651314,261.156158 101.458672,264.168152 105.684380,264.154663   C110.211121,264.140228 113.151123,261.745392 115.025856,257.850769   C118.566978,250.494354 116.893784,243.247040 114.426155,236.050888   C113.686142,233.892868 112.780136,231.791748 111.733704,229.109726   C121.478165,229.109726 130.652130,229.109726 139.990341,229.109726   C139.990341,230.164734 140.203003,231.035965 139.959015,231.751511   C134.805466,246.865814 136.802872,261.965424 140.024460,277.052856   C141.300461,283.028503 140.739365,283.378571 134.548050,283.252838   C128.434296,283.128632 122.231079,283.321411 116.193939,284.223755   C91.260246,287.950439 77.170723,278.969696 71.651924,254.498581   C67.638657,236.703201 67.552567,218.783813 73.914505,201.368027   C80.874573,182.314896 94.590408,174.177429 114.752197,176.578735   C119.703865,177.168488 124.726395,177.243515 129.638260,178.037933   C131.097168,178.273865 133.430649,180.163773 133.423248,181.282990   C133.366104,189.926575 132.847107,198.567780 132.411987,207.206726   C132.383896,207.764618 131.863480,208.297699 131.314743,209.323288   C124.093918,203.018631 117.825592,195.011230 106.393661,198.053314  z" data-index="2"/>
</svg>