<svg xmlns="http://www.w3.org/2000/svg" xmlns:xlink="http://www.w3.org/1999/xlink" version="1.1" id="Layer_1" x="0px" y="0px" enable-background="new 0 0 500 500" xml:space="preserve" viewBox="44.11 174.56 414.44 122.42">

<path fill="#030303" opacity="1.000000" stroke="none" d=" M376.171295,268.144165   C380.627167,267.172028 381.902740,268.720612 381.695312,272.817749   C381.367859,279.286499 381.532806,285.788116 381.700165,292.270416   C381.778473,295.304718 381.047150,297.093170 377.606110,296.969208   C359.795563,296.327545 341.956268,296.158203 324.179016,295.014740   C308.482391,294.005127 296.810608,283.802307 293.022034,268.447021   C291.122406,260.747559 290.242493,252.796509 288.842285,244.613861   C283.599670,244.613861 278.009857,244.613861 271.373322,244.613861   C272.762024,256.568939 274.135773,268.426880 275.521210,280.283447   C275.694916,281.770020 276.414642,283.404572 276.003326,284.689484   C275.574066,286.030426 274.123566,287.982819 273.049286,288.028870   C265.246155,288.363403 257.425262,288.290955 249.609894,288.331879   C245.894989,288.351318 245.878433,285.999481 246.201004,283.208496   C247.671692,270.483856 249.446747,257.776703 250.337585,245.009155   C250.914505,236.740784 250.653458,228.332245 249.875305,220.070602   C248.773239,208.370041 242.652359,202.682144 231.057175,200.974503   C216.324783,198.804840 201.794998,200.591797 187.353882,203.266998   C182.915894,204.089142 181.708557,202.905411 181.897537,198.580353   C182.180817,192.097015 182.135208,185.584229 181.875641,179.098129   C181.730515,175.471878 183.147964,174.451782 186.537796,174.565918   C202.021225,175.087219 217.521606,175.209503 232.993347,175.947800   C256.618225,177.075119 271.352814,192.432312 271.936005,216.066101   C272.029541,219.856476 271.949127,223.651123 271.949127,227.655319   C277.799194,227.655319 283.211182,227.655319 289.746643,227.655319   C288.316040,215.210327 287.095612,203.023148 285.456207,190.892578   C284.392395,183.021057 284.546753,182.889786 292.617706,183.513962   C298.227234,183.947769 303.922150,183.632187 309.556458,183.285950   C314.674438,182.971481 315.518311,183.692337 314.641846,188.830078   C311.439636,207.601273 309.686035,226.469910 310.874207,245.533051   C310.967499,247.029572 311.018158,248.533417 311.208435,250.018494   C313.117737,264.919220 318.942169,270.922150 333.955688,270.846863   C347.886322,270.777008 361.809113,269.150879 376.171295,268.144165  z" data-index="1" style="opacity: 1;"/>
<path fill="#030303" opacity="1.000000" stroke="none" d=" M48.595764,266.306335   C43.937244,251.541763 43.057278,236.819794 45.255684,221.975677   C48.365334,200.978653 62.375862,182.603424 90.242157,181.091431   C110.183640,180.009445 130.178909,179.880341 150.152939,179.456055   C157.977982,179.289841 165.813446,179.613022 173.638412,179.445221   C177.234879,179.368088 178.820724,180.368958 178.600052,184.263367   C178.261429,190.239151 178.134354,196.252930 178.404816,202.228516   C178.600510,206.552277 177.128296,207.589661 172.904755,207.316650   C152.300354,205.984818 131.685074,204.677460 111.052681,203.997971   C103.480247,203.748566 95.710197,204.574051 88.278297,206.109589   C76.412285,208.561234 70.413582,215.816330 68.860085,227.828659   C67.385628,239.229919 68.233971,250.454880 72.208939,261.273010   C73.754303,265.478821 75.729172,269.800903 81.581329,269.272095   C86.387207,268.837891 89.572052,265.821259 91.101944,259.821259   C93.388756,250.852692 90.649239,242.365448 88.353371,233.855988   C87.852074,231.997910 87.298714,230.153885 86.685165,228.009155   C96.540565,228.009155 105.768890,228.009155 115.489738,228.009155   C114.622925,232.041275 113.663803,235.554672 113.134575,239.131668   C111.041290,253.279770 111.422615,267.349670 114.822113,281.292053   C116.475998,288.075165 116.017036,288.201324 109.194427,288.201996   C102.250008,288.202637 95.236885,288.662689 88.374428,289.710938   C69.129448,292.650696 55.496891,284.889832 48.595764,266.306335  z" data-index="2" style="opacity: 1;"/>
<path fill="#030303" opacity="1.000000" stroke="none" d=" M447.897644,198.216309   C455.530273,215.190689 452.341278,232.233978 439.302917,244.049088   C448.438477,250.549805 452.692108,259.750488 454.372894,270.558594   C455.055511,274.948120 456.754181,279.191071 458.120361,283.459198   C459.231201,286.929718 458.250336,288.449463 454.465363,288.353455   C447.318359,288.172241 440.164062,288.103180 433.016113,288.209747   C429.741180,288.258575 429.061127,287.038055 429.573242,283.966675   C430.309357,279.551880 430.848907,275.063416 430.961975,270.593506   C431.254913,259.011505 425.490967,252.657120 412.650879,250.909897   C413.554199,259.269928 414.166534,267.458252 415.377014,275.557159   C417.260406,288.158264 417.434631,288.069122 404.818054,287.689636   C400.833496,287.569794 396.831604,287.811859 392.844940,288.024719   C386.955750,288.339142 386.571381,287.712402 387.198578,282.092255   C388.746796,268.218781 391.164368,254.306931 391.088196,240.422256   C390.995483,223.522781 388.878845,206.618973 387.277405,189.751236   C386.683777,183.498856 386.882904,183.037003 393.302612,183.117279   C403.271057,183.241913 413.277405,182.469360 423.205780,183.081375   C433.660767,183.725876 442.379181,188.281464 447.897644,198.216309  M425.479828,235.977676   C431.383514,227.847046 431.546387,218.673737 430.105896,209.309708   C429.196838,203.400223 426.246460,200.564880 421.660248,200.519958   C417.627991,200.480438 414.030945,203.523026 413.530151,209.070404   C412.611694,219.244110 412.479309,229.488770 412.021057,239.661682   C417.519409,240.525681 421.601257,239.830902 425.479828,235.977676  z" data-index="3" style="opacity: 1;"/>
<path fill="#030303" opacity="1.000000" stroke="none" d=" M166.393829,249.449448   C170.155258,260.700378 173.743927,271.575958 177.405716,282.426849   C179.152344,287.602631 178.707642,288.201538 173.395233,288.121185   C168.241409,288.043213 163.067886,287.974426 157.933777,288.336975   C154.481476,288.580811 153.029541,287.423615 152.808731,284.024628   C152.583801,280.562378 152.012756,277.122620 151.555832,273.365143   C147.727203,273.365143 143.992004,273.365143 139.939407,273.365143   C140.590179,276.857910 141.203033,280.270782 141.866562,283.673737   C142.532578,287.089569 141.496414,288.598816 137.704361,288.321564   C133.071121,287.982788 128.392502,288.030182 123.743782,288.197083   C118.125069,288.398834 117.837486,288.046844 118.125740,282.438568   C118.825783,268.818512 119.663811,255.191727 119.794052,241.561417   C119.870071,233.604324 118.752213,225.629791 118.047974,217.674057   C117.747101,214.275116 118.401573,212.497299 122.490227,212.424057   C138.607437,212.135361 154.721985,211.586426 170.829849,210.941986   C177.409378,210.678757 177.570404,210.602081 177.597382,217.221649   C177.617065,222.050400 177.663605,226.880554 177.567444,231.707458   C177.533081,233.432312 177.114929,235.149506 176.802994,237.358475   C171.878815,235.071564 167.596420,233.082703 162.076172,230.518967   C163.657654,237.543869 164.954391,243.303925 166.393829,249.449448  M145.241928,260.580719   C146.644043,260.474640 148.046158,260.368561 150.114349,260.212067   C147.107880,248.421234 144.248596,237.207642 141.389313,225.994034   C140.764481,226.078583 140.139633,226.163116 139.514801,226.247650   C139.514801,237.579208 139.514801,248.910751 139.514801,260.580688   C141.096207,260.580688 142.740265,260.580688 145.241928,260.580719  z" data-index="4" style="opacity: 1;"/>
<path fill="#030303" opacity="1.000000" stroke="none" d=" M322.496582,183.147049   C340.392212,182.954956 357.849854,182.956070 375.306152,182.803101   C378.598236,182.774261 379.839233,184.186127 379.780273,187.252991   C379.693909,191.745041 379.651550,196.237915 379.573059,200.730133   C379.492096,205.367813 378.628204,205.555069 374.127716,204.460129   C367.095642,202.749237 359.904968,201.672943 352.761200,200.446030   C349.608398,199.904572 348.295685,201.601074 348.102936,204.645020   C347.905029,207.771057 347.444550,210.880463 346.973755,215.126404   C353.704742,213.716827 359.861298,212.427536 366.737518,210.987534   C366.737518,217.196350 366.860443,223.105270 366.554047,228.991867   C366.522186,229.604065 363.833466,230.727524 362.565399,230.511368   C357.557159,229.657761 352.623840,228.364685 346.739044,227.024231   C347.348206,232.003616 347.562958,235.953293 348.463013,239.740112   C348.722900,240.833603 350.927002,242.136307 352.283508,242.187622   C360.375824,242.493820 368.155762,241.041733 375.389801,237.168579   C376.919830,236.349396 378.598511,235.807892 381.079407,234.776428   C381.079407,242.960678 381.261688,250.234406 380.857574,257.475372   C380.804810,258.420929 377.733063,259.941833 376.069824,259.928558   C367.588684,259.860809 359.111481,259.129364 350.631714,259.108582   C342.485260,259.088593 334.327393,259.499847 326.194214,260.025635   C322.041779,260.294067 320.137268,259.139587 321.114471,254.746628   C326.034393,232.629120 325.758362,210.513641 321.209259,188.366806   C320.886963,186.797821 321.747589,184.985855 322.496582,183.147049  z" data-index="5" style="opacity: 1;"/>
<path fill="#040403" opacity="1.000000" stroke="none" d=" M239.997894,232.931915   C234.137390,231.304031 228.680237,229.670822 222.846237,227.924835   C220.535980,245.552841 220.895401,261.796661 223.541611,277.990570   C225.206085,288.176514 226.617126,290.091461 214.454269,288.397186   C210.891998,287.900970 207.155762,288.620331 203.501648,288.824921   C198.772263,289.089722 197.737778,288.027161 198.568909,283.396667   C201.436584,267.419983 202.882248,251.377365 200.982117,235.165283   C200.752075,233.202576 200.484879,231.244232 200.092575,228.167679   C194.996902,229.473740 190.237701,230.569550 185.554626,231.927872   C180.620316,233.359070 179.866928,232.919861 179.879120,227.980118   C179.890198,223.482330 180.033707,218.977463 179.829315,214.488922   C179.673355,211.064041 180.797836,209.447021 184.398148,209.892548   C202.341797,212.112991 220.289307,212.065720 238.237061,209.902893   C240.635498,209.613831 242.735992,210.032715 242.777328,213.036438   C242.852875,218.526260 242.916992,224.024261 242.665283,229.504150   C242.611389,230.677155 241.191742,231.787415 239.997894,232.931915  z" data-index="6" style="opacity: 1;"/>

<path fill="#ECEDE4" opacity="1.000000" stroke="none" d=" M144.813126,260.580688   C142.740265,260.580688 141.096207,260.580688 139.514801,260.580688   C139.514801,248.910751 139.514801,237.579208 139.514801,226.247650   C140.139633,226.163116 140.764481,226.078583 141.389313,225.994034   C144.248596,237.207642 147.107880,248.421234 150.114349,260.212067   C148.046158,260.368561 146.644043,260.474640 144.813126,260.580688  z" data-index="8" style="opacity: 1; visibility: hidden;"/>
</svg>